<?xml version="1.0" encoding="utf-8"?>
<!-- Generator: Adobe Illustrator 26.0.1, SVG Export Plug-In . SVG Version: 6.00 Build 0)  -->
<svg version="1.1" id="Layer_1" xmlns="http://www.w3.org/2000/svg" xmlns:xlink="http://www.w3.org/1999/xlink" x="0px" y="0px"
	 viewBox="0 0 500 500" style="enable-background:new 0 0 500 500;" xml:space="preserve">
<g fill="white">
	<g>
		<g>
			<path d="M224.97,211.82c0.01-0.7,0.01-1.4,0.01-2.08l-0.08-14.14c-0.01-1.9-0.02-4.05-0.66-6.14
				c-1.63-5.35-6.82-9.67-10.77-11.75c-6.07-3.18-11.89-2.92-14.79-2.49L100,187.05v126.68h26.42v-25.83l36.67-2.01l47.73,38.53
				v0.62h28.7v-59.65l-14.14-11.68L224.97,211.82z M161.6,234.6V282l-35.18,1.93V237.1L161.6,234.6z M210.82,272.32v47.01
				l-45.27-36.55v-46.22L210.82,272.32z M103.96,309.77v-46.79h18.51v46.79H103.96z M215.64,228.08c2.27-1.61,4.09-3.2,5.49-4.83
				l0.27,27.15l-20.64-17.05C205.01,233.03,210.43,231.76,215.64,228.08z M220.45,190.61c0.47,1.54,0.48,3.3,0.49,5.01l0.08,14.29
				c0,0.21,0,0.41,0,0.62H221l0.01,1.21c-0.02,1.45-0.1,3.16-0.52,4.77c-0.71,2.71-3.04,5.44-7.13,8.33
				c-6.86,4.85-14.22,4.88-17.99,4.48l-6.56-0.71l46.76,38.62v2.14h-22.08l-49.29-38.93l-41.73,2.96v25.61h-18.51v-68.47
				l95.26-11.41c2.46-0.37,7.34-0.6,12.42,2.07C215.16,183.07,219.26,186.69,220.45,190.61z M214.78,321.07v-47.74h20.79v47.74
				H214.78z"/>
			<path d="M122.47,222.61l78.93-5.58v-26.35l-78.93,7.31V222.61z M197.44,195.01v18.33l-71.02,5.02v-16.77L197.44,195.01z"/>
		</g>
		<g>
			<path d="M301.35,175.23c-2.93-0.44-8.75-0.71-14.82,2.48c-3.95,2.07-9.14,6.39-10.77,11.75c-0.64,2.09-0.65,4.24-0.66,6.14
				l-0.08,14.14c0,0.69,0,1.39,0.01,2.06l-0.41,41.89l-14.14,11.68v59.65h27.71l0.99-0.1v-0.52l47.73-38.53l36.67,2.01v25.83H400
				V187.05L301.35,175.23z M264.43,321.07v-47.74h20.79v47.74H264.43z M396.04,262.98v46.79h-18.51v-46.79H396.04z M264.43,269.38
				v-2.14l46.76-38.62l-6.56,0.71c-3.78,0.4-11.14,0.37-17.99-4.48c-4.09-2.89-6.42-5.62-7.13-8.33c-0.42-1.61-0.5-3.32-0.52-4.75
				l0-0.24l0-1h-0.01c0-0.26,0-0.52,0-0.78l0.08-14.14c0.01-1.71,0.02-3.48,0.49-5.01c1.19-3.92,5.29-7.54,8.82-9.4
				c5.08-2.67,9.96-2.44,12.45-2.06l95.23,11.41v68.47h-18.51v-25.61l-41.73-2.96l-49.29,38.93H264.43z M278.87,223.25
				c1.4,1.63,3.21,3.23,5.49,4.83c5.21,3.68,10.63,4.95,14.89,5.27l-20.64,17.05L278.87,223.25z M334.45,236.56v46.22l-45.27,36.55
				v-47.01L334.45,236.56z M373.58,237.1v46.83L338.4,282v-47.4L373.58,237.1z"/>
			<path d="M377.53,197.98l-78.93-7.31v26.35l78.93,5.58V197.98z M302.56,213.34v-18.33l71.02,6.58v16.77L302.56,213.34z"/>
		</g>
	</g>
</g>
</svg>
